<svg width="20" height="20" viewBox="0 0 20 20" fill="none" xmlns="http://www.w3.org/2000/svg">
<path d="M2.19743 1.42857V18.5714C2.19743 18.9503 2.08168 19.3137 1.87563 19.5816C1.66958 19.8495 1.39012 20 1.09872 20C0.807319 20 0.527856 19.8495 0.321807 19.5816C0.115757 19.3137 0 18.9503 0 18.5714V1.42857C0 1.04969 0.115757 0.686328 0.321807 0.418419C0.527856 0.15051 0.807319 0 1.09872 0C1.39012 0 1.66958 0.15051 1.87563 0.418419C2.08168 0.686328 2.19743 1.04969 2.19743 1.42857ZM9.77217 7.46429L8.4235 8.03333V6.19048C8.4235 5.8116 8.30774 5.44823 8.10169 5.18032C7.89564 4.91241 7.61618 4.7619 7.32478 4.7619C7.03338 4.7619 6.75392 4.91241 6.54787 5.18032C6.34182 5.44823 6.22606 5.8116 6.22606 6.19048V8.03333L4.87739 7.46429C4.73916 7.40106 4.5926 7.37443 4.44634 7.38595C4.30008 7.39747 4.15707 7.44692 4.02572 7.53138C3.89438 7.61584 3.77735 7.7336 3.68153 7.87775C3.58571 8.02189 3.51304 8.1895 3.46778 8.37071C3.42253 8.55191 3.40561 8.74306 3.41802 8.9329C3.43043 9.12274 3.47192 9.30743 3.54005 9.4761C3.60818 9.64478 3.70156 9.79404 3.81472 9.91508C3.92787 10.0361 4.05851 10.1265 4.19893 10.181L5.54669 10.7512L4.7135 12.2417C4.54218 12.5482 4.47155 12.9308 4.51713 13.305C4.56272 13.6793 4.7208 14.0147 4.95659 14.2375C5.19238 14.4602 5.48657 14.5521 5.77443 14.4928C6.0623 14.4335 6.32027 14.228 6.49159 13.9214L7.32478 12.431L8.15798 13.9214C8.32929 14.228 8.58726 14.4335 8.87513 14.4928C9.163 14.5521 9.45719 14.4602 9.69298 14.2375C9.92877 14.0147 10.0868 13.6793 10.1324 13.305C10.178 12.9308 10.1074 12.5482 9.93607 12.2417L9.10287 10.7512L10.4506 10.181C10.5911 10.1265 10.7217 10.0361 10.8348 9.91508C10.948 9.79404 11.0414 9.64478 11.1095 9.4761C11.1776 9.30743 11.2191 9.12274 11.2315 8.9329C11.244 8.74306 11.227 8.55191 11.1818 8.37071C11.1365 8.1895 11.0638 8.02189 10.968 7.87775C10.8722 7.7336 10.7552 7.61584 10.6238 7.53138C10.4925 7.44692 10.3495 7.39747 10.2032 7.38595C10.057 7.37443 9.9104 7.40106 9.77217 7.46429ZM19.9463 8.38095C19.8562 8.02074 19.6597 7.72181 19.4001 7.54991C19.1405 7.37801 18.839 7.34721 18.5619 7.46429L17.2132 8.03333V6.19048C17.2132 5.8116 17.0975 5.44823 16.8914 5.18032C16.6854 4.91241 16.4059 4.7619 16.1145 4.7619C15.8231 4.7619 15.5437 4.91241 15.3376 5.18032C15.1316 5.44823 15.0158 5.8116 15.0158 6.19048V8.03333L13.6671 7.46429C13.5289 7.40106 13.3823 7.37443 13.2361 7.38595C13.0898 7.39747 12.9468 7.44692 12.8155 7.53138C12.6841 7.61584 12.5671 7.7336 12.4713 7.87775C12.3755 8.02189 12.3028 8.1895 12.2575 8.37071C12.2123 8.55191 12.1953 8.74306 12.2078 8.9329C12.2202 9.12274 12.2617 9.30743 12.3298 9.4761C12.3979 9.64478 12.4913 9.79404 12.6045 9.91508C12.7176 10.0361 12.8482 10.1265 12.9887 10.181L14.3364 10.7512L13.5032 12.2417C13.3319 12.5482 13.2613 12.9308 13.3069 13.305C13.3525 13.6793 13.5105 14.0147 13.7463 14.2375C13.9821 14.4602 14.2763 14.5521 14.5642 14.4928C14.852 14.4335 15.11 14.228 15.2813 13.9214L16.1145 12.431L16.9477 13.9214C17.0325 14.0732 17.1395 14.2018 17.2626 14.2999C17.3856 14.3979 17.5223 14.4635 17.6649 14.4928C17.8074 14.5222 17.953 14.5147 18.0933 14.4709C18.2336 14.4271 18.366 14.3478 18.4827 14.2375C18.5995 14.1272 18.6984 13.9881 18.7738 13.8281C18.8492 13.6681 18.8996 13.4904 18.9222 13.305C18.9447 13.1197 18.939 12.9304 18.9053 12.748C18.8716 12.5655 18.8106 12.3935 18.7258 12.2417L17.8926 10.7512L19.2404 10.181C19.3776 10.123 19.5048 10.0306 19.6145 9.90875C19.7243 9.78695 19.8145 9.63822 19.8801 9.47107C19.9456 9.30392 19.9852 9.12162 19.9966 8.93458C20.0079 8.74753 19.9909 8.55941 19.9463 8.38095Z" fill="#068FFF"/>
</svg>
